<?xml version="1.0" encoding="UTF-8"?>
<svg version="1.1" xmlns="http://www.w3.org/2000/svg" width="96" height="96">
<path d="M0 0 C31.68 0 63.36 0 96 0 C96 31.68 96 63.36 96 96 C64.32 96 32.64 96 0 96 C0 64.32 0 32.64 0 0 Z " fill="#FDFDFD" transform="translate(0,0)"/>
<path d="M0 0 C6.75 0.75 6.75 0.75 9 3 C9.639375 3.103125 10.27875 3.20625 10.9375 3.3125 C13.95532302 4.31844101 14.50890456 6.27713007 16 9 C16.51820312 9.44472656 17.03640625 9.88945313 17.5703125 10.34765625 C19.53161643 12.61440915 19.36909361 14.1065723 19.3125 17.0625 C19.30863281 17.94035156 19.30476563 18.81820312 19.30078125 19.72265625 C19 22 19 22 17 24 C15 21 15 21 14.5625 17.5 C14.25075974 14.11291099 14.25075974 14.11291099 12.75 12 C10.21065094 10.54894339 8.77787469 11.25760177 6 12 C3.79911243 13.06231203 3.79911243 13.06231203 1.6875 14.375 C-2.42209564 16.73989169 -6.48654145 18.55935733 -11 20 C-11.9384375 20.35191406 -12.876875 20.70382813 -13.84375 21.06640625 C-19.84212213 22.75459474 -26.2016886 22.28718862 -32.375 22.25 C-33.65117188 22.25773437 -34.92734375 22.26546875 -36.2421875 22.2734375 C-43.08952648 22.25929011 -49.46801507 22.17274446 -56 20 C-57.23193359 17.92285156 -57.23193359 17.92285156 -58 16 C-57.36320312 16.0721875 -56.72640625 16.144375 -56.0703125 16.21875 C-33.59597905 18.3648402 -14.32488006 18.95746567 5 6 C2.525 5.01 2.525 5.01 0 4 C0 2.68 0 1.36 0 0 Z " fill="#474747" transform="translate(72,40)"/>
<path d="M0 0 C1.1456543 0.00193359 1.1456543 0.00193359 2.31445312 0.00390625 C9.42946494 0.11536858 9.42946494 0.11536858 12.5625 2.375 C14.01397903 5.27795805 13.93489025 7.14761779 13.5625 10.375 C11.74939858 13.30437654 9.68954101 15.81147949 6.5625 17.375 C1.49456684 17.93101425 -2.35937191 17.93331633 -6.9375 15.5625 C-9.9051074 12.96584352 -11.32744166 11.40954842 -11.75 7.4375 C-10.9815808 -0.09300816 -6.66086407 -0.21252127 0 0 Z " fill="#131313" transform="translate(64.4375,18.625)"/>
<path d="M0 0 C3.5625 1.5625 3.5625 1.5625 6 4 C6.75 7.4375 6.75 7.4375 6 11 C3.42309132 14.02786769 1.82948577 15.60045713 -2.0390625 16.4453125 C-5.487951 16.63907028 -7.58641443 16.30474726 -10.375 14.25 C-14.05623902 9.15289982 -14.05623902 9.15289982 -13.875 5.4375 C-11.58222802 -0.94950767 -5.93638339 -0.90224825 0 0 Z " fill="#202020" transform="translate(31,19)"/>
<path d="M0 0 C3.07921132 -0.25660094 5.21136993 -0.39431504 8 1 C8.125 8.625 8.125 8.625 7 12 C4.69 11.67 2.38 11.34 0 11 C0.33 10.01 0.66 9.02 1 8 C1.66 7.67 2.32 7.34 3 7 C3 6.01 3 5.02 3 4 C1.35 3.67 -0.3 3.34 -2 3 C-1.34 2.01 -0.68 1.02 0 0 Z " fill="#070707" transform="translate(26,20)"/>
<path d="M0 0 C6.75 0.75 6.75 0.75 9 3 C11.06874034 3.6425235 11.06874034 3.6425235 13 4 C13 5.65 13 7.3 13 9 C9.48938777 9.40121283 8.28048812 9.20702695 5.375 7.0625 C4.59125 6.381875 3.8075 5.70125 3 5 C2.01 4.67 1.02 4.34 0 4 C0 2.68 0 1.36 0 0 Z " fill="#444444" transform="translate(72,40)"/>
<path d="M0 0 C2.5 -0.3125 2.5 -0.3125 5 0 C5.66 0.66 6.32 1.32 7 2 C9.06874034 2.6425235 9.06874034 2.6425235 11 3 C10.67 3.99 10.34 4.98 10 6 C8.56344146 6.08131463 7.1255517 6.13933559 5.6875 6.1875 C4.48673828 6.23970703 4.48673828 6.23970703 3.26171875 6.29296875 C0.52148416 5.93801608 -0.29171079 5.10633718 -2 3 C-1.34 2.01 -0.68 1.02 0 0 Z " fill="#575757" transform="translate(60,24)"/>
<path d="M0 0 C-0.556875 0.226875 -1.11375 0.45375 -1.6875 0.6875 C-5.71969057 2.97604059 -8.45058599 6.17587898 -11 10 C-11.2145758 6.85288821 -11.23318878 4.55382336 -10 1.625 C-6.82368122 -0.95575901 -4.00554268 -0.26265854 0 0 Z " fill="#171717" transform="translate(64,19)"/>
<path d="M0 0 C0.99 0.33 1.98 0.66 3 1 C3 3.31 3 5.62 3 8 C1.02 8.99 1.02 8.99 -1 10 C-0.67 6.7 -0.34 3.4 0 0 Z " fill="#2E2E2E" transform="translate(34,22)"/>
<path d="M0 0 C1.2065625 0.0309375 1.2065625 0.0309375 2.4375 0.0625 C2.7675 1.3825 3.0975 2.7025 3.4375 4.0625 C1.0625 4.25 1.0625 4.25 -1.5625 4.0625 C-2.2225 3.0725 -2.8825 2.0825 -3.5625 1.0625 C-2.5625 0.0625 -2.5625 0.0625 0 0 Z " fill="#151515" transform="translate(81.5625,44.9375)"/>
<path d="M0 0 C0.66 0 1.32 0 2 0 C2 0.66 2 1.32 2 2 C3.32 1.67 4.64 1.34 6 1 C6 1.99 6 2.98 6 4 C4.35 4.33 2.7 4.66 1 5 C0.34 3.68 -0.32 2.36 -1 1 C-0.67 0.67 -0.34 0.34 0 0 Z " fill="#535353" transform="translate(23,24)"/>
<path d="M0 0 C0.66 0 1.32 0 2 0 C1.71125 0.53625 1.4225 1.0725 1.125 1.625 C-0.16711808 4.35280484 -1.08558592 7.12612718 -2 10 C-2.33 10 -2.66 10 -3 10 C-3.2295711 6.63295715 -3.33943529 4.58629732 -1.625 1.625 C-1.08875 1.08875 -0.5525 0.5525 0 0 Z " fill="#585858" transform="translate(56,19)"/>
</svg>
